<svg xmlns="http://www.w3.org/2000/svg" xmlns:xlink="http://www.w3.org/1999/xlink" xml:space="preserve" width="750.11713" height="301.34406" viewBox="0 0 198.466 79.727233"><defs><linearGradient id="a"><stop offset="0" stop-color="#fff" style="stop-color:#26b3f5;stop-opacity:1"/><stop offset="1" stop-color="#090909" style="stop-color:#1444d6;stop-opacity:1"/></linearGradient><linearGradient xlink:href="#a" id="e" x1="6.1999998" x2="6.1999998" y1="2.4261913" y2="44.542" gradientTransform="translate(.001 -.002) scale(1.53978)" gradientUnits="userSpaceOnUse"/><linearGradient id="b"><stop offset="0" stop-color="#fff" style="stop-color:#35c7fc;stop-opacity:1"/><stop offset="1" stop-color="#090909" style="stop-color:#1444d6;stop-opacity:1"/></linearGradient><linearGradient xlink:href="#b" id="d" x1="4.3250093" x2="30.165228" y1="48.702557" y2="33.175346" gradientTransform="translate(.001 -.002) scale(1.53978)" gradientUnits="userSpaceOnUse"/><linearGradient id="c" x1="19.624001" x2="34.617001" y1="15.022" y2="40.990002" gradientTransform="translate(.001 -.002) scale(1.53978)" gradientUnits="userSpaceOnUse"><stop offset="0" stop-color="#e9e9e9" style="stop-color:#32c0fb;stop-opacity:1"/><stop offset="0.5" stop-color="#e9e9e9" style="stop-color:#0cd4e3;stop-opacity:1"/><stop offset="1" stop-color="#fff" style="stop-color:#06dada;stop-opacity:1"/></linearGradient></defs><path fill="url(#c)" d="M54.334 51.184c0 .791-.043 1.578-.13 2.354a21.42 21.42 0 0 1-5.638 12.312 9.9 9.9 0 0 0 1.046-1.39c.237-.376.446-.769.625-1.179.064-.134.123-.274.172-.414.059-.134.108-.274.151-.414.048-.13.09-.263.13-.399.036-.14.075-.28.107-.42l.017-.048c.032-.14.059-.28.086-.42.028-.145.054-.291.076-.436v-.01c.021-.135.037-.27.048-.41a9.61 9.61 0 0 0-1.329-5.94 8.687 8.687 0 0 0-.662-.97 9.194 9.194 0 0 0-.927-1.03 9.644 9.644 0 0 0-4.313-2.418c-.005 0-.017-.005-.022-.005l-.177-.061-2.51-.863v-.006L34.52 46.76c-.022-.006-.05-.006-.065-.01l-.41-.152a6.09 6.09 0 0 1-3.096-2.719l-2.395-6.113-2.747-7.001-.528-1.352-.134-.274a3.09 3.09 0 0 1-.231-1.18c0-.107 0-.215.01-.312a3.066 3.066 0 0 1 4.24-2.505l12.236 6.274 2.413 1.234a21.12 21.12 0 0 1 3.553 2.66 21.466 21.466 0 0 1 6.915 14.365c.033.502.054 1.002.054 1.509z" style="opacity:1;fill:url(#c);stroke-width:1.53983;stroke-dasharray:none"/><path fill="url(#d)" d="M51.064 59.35c0 .624-.06 1.228-.166 1.815-.033.155-.065.312-.102.468a10.241 10.241 0 0 1-.388 1.233c-.054.14-.112.274-.172.414-.178.41-.388.803-.626 1.18-.306.496-.657.96-1.045 1.389-1.783 1.97-7.837 5.487-10.068 6.915l-4.952 3.027c-3.63 2.236-7.061 3.818-11.385 3.926a20.533 20.533 0 0 1-1.433-.004C13.402 79.433 7.015 75.5 3.33 69.69a21.253 21.253 0 0 1-3.178-8.979 9.536 9.536 0 0 0 9.393 7.869 9.5 9.5 0 0 0 4.545-1.147l.032-.016.485-.29 1.971-1.165 2.51-1.486v-.07l.323-.194 22.453-13.304 1.73-1.024.172.059.021.005c.496.123.98.29 1.443.495a9.622 9.622 0 0 1 2.87 1.924c.334.317.64.662.927 1.028.242.306.463.63.662.97a9.652 9.652 0 0 1 1.375 4.984z" opacity="0.08" style="opacity:1;fill:url(#d);stroke-width:1.53978"/><path fill="url(#e)" d="m19.093 14.954-.008 49.52-2.51 1.487-1.972 1.163-.487.294a9.566 9.566 0 0 1-4.578 1.164c-4.703 0-8.595-3.394-9.392-7.868a8.722 8.722 0 0 1-.087-.626c-.03-.39-.051-.772-.059-1.164V3.194A3.196 3.196 0 0 1 4.984.543l9.767 6.38c.05.045.11.082.169.117a9.557 9.557 0 0 1 4.173 7.913z" opacity="0.05" style="opacity:1;fill:url(#e);stroke-width:1.53978"/><path d="M77.361 63.261V16.552h14.82c5.882 0 8.76 1.09 10.717 2.562 2.65 1.976 3.974 4.713 3.974 7.884 0 2.649-.75 5.189-2.247 7.143-1.499 1.955-3.63 3.068-6.278 3.893 3.214.37 5.832 1.594 7.743 3.614 1.933 1.998 2.9 4.603 2.9 7.817 0 3.996-1.534 7.741-4.724 10.249-3.148 2.475-7.122 3.547-11.921 3.547zm7.72-40.488v13.093h5.016c2.693 0 4.562-.63 6.082-1.889 1.542-1.281 2.168-2.887 2.168-5.21 0-5.12-5.537-5.994-7.631-5.994zm0 19.511v14.473h6.612c2.888 0 4.88-.662 6.444-1.987 1.585-1.346 2.378-2.877 2.378-5.222 0-4.842-3.548-7.264-9.832-7.264z" style="font-weight:600;font-size:89.9068px;font-family:&quot;Segoe UI&quot;;fill:#737373;fill-opacity:1;stroke-width:7.87894;stroke-linecap:round;stroke-linejoin:round"/><path d="M118.844 15.172a4.73 4.632 0 0 0-4.73 4.632 4.73 4.632 0 0 0 4.73 4.631 4.73 4.632 0 0 0 4.73-4.631 4.73 4.632 0 0 0-4.73-4.632zm-3.842 14.602v33.485h7.586V29.774ZM160.165 63.244h-7.587V44.376c0-6.257-2.213-9.1-6.638-9.1-2.311 0-3.913.587-5.417 2.33-1.504 1.723-2.365 3.903-2.365 6.541v19.097h-7.816V29.76h7.75v4.728c3.81-4.927 6.126-5.513 10.856-5.513 3.794 0 6.803 1.188 8.721 3.564 1.919 2.355 2.496 5.766 2.496 10.236z" style="font-weight:600;font-size:89.9068px;font-family:&quot;Segoe UI&quot;;fill:#737373;fill-opacity:1;stroke-width:7.91001;stroke-linecap:round;stroke-linejoin:round"/><path d="M198.466 59.581c0 11.914-6.158 17.87-18.475 17.87-4.345 0-8.135-.358-11.372-1.773V67.99c2.446 1.711 6 3.548 10.394 3.548 7.93 0 11.767-4.704 11.767-11.431V58.53h-.004c-4.53 5.124-8.669 5.124-11.274 5.124-4.095 0-7.51-1.66-10.008-4.533-2.476-2.893-3.548-6.898-3.548-12.12 0-5.513 1.688-10.05 4.36-13.304 2.672-3.253 6.343-4.724 11.013-4.724 4.41 0 7.722 1.472 9.457 4.33h.004v-3.57h7.686zm-7.494-12.262v-3.57c0-2.28-.782-4.306-2.346-5.912-1.543-1.626-3.125-2.562-5.45-2.562-2.867 0-5.351 1.035-6.98 3.105-1.638 2.087-2.366 4.581-2.366 8.179 0 3.19.61 6.108 2.153 8.03 1.564 1.902 3.628 2.957 6.19 2.957 3.432 0 5.007-1.376 6.636-3.193 1.629-1.837 2.163-4.182 2.163-7.034z" style="font-weight:600;font-size:89.9068px;font-family:&quot;Segoe UI&quot;;fill:#737373;fill-opacity:1;stroke-width:7.77235;stroke-linecap:round;stroke-linejoin:round"/></svg>